# xmcd CD database file
#
# Track frame offsets:
#	150
#	14850
#	30365
#	41082
#	57222
#	76980
#	95700
#	110185
#	128220
#	144542
#
# Disc length: 2221 seconds
#
# Revision: 0
# Processed by: cddbd v1.5PL3 Copyright (c) Steve Scherf et al.
# Submitted via: CDex 1.51
#
DISCID=8c08ab0a
DTITLE=Scoobie Do - BREAK ROCK
DYEAR=2003
DGENRE=Rock and Roll
TTITLE0=路上のハードボイルド
TTITLE1=Walkin' Around
TTITLE2=左胸のボス
TTITLE3=時にはマイルスみたいに
TTITLE4=遊びじゃないぜ
TTITLE5=最終列車
TTITLE6=サンセットグルーヴ
TTITLE7=Funky New Day
TTITLE8=Get Up 〜aibum ver〜
TTITLE9=つづきのメロディー
EXTD=YEAR: 2003
EXTT0=
EXTT1=
EXTT2=
EXTT3=
EXTT4=
EXTT5=
EXTT6=
EXTT7=
EXTT8=
EXTT9=
PLAYORDER=
